<svg xmlns="http://www.w3.org/2000/svg" viewBox="0 0 100 100">
  <!-- Background circle with gradient -->
  <defs>
    <linearGradient id="bgGradient" x1="0%" y1="0%" x2="100%" y2="100%">
      <stop offset="0%" style="stop-color:#B71C1C;stop-opacity:1" />
      <stop offset="100%" style="stop-color:#7F0000;stop-opacity:1" />
    </linearGradient>
    <linearGradient id="chiliGradient" x1="0%" y1="0%" x2="100%" y2="100%">
      <stop offset="0%" style="stop-color:#FF6B35;stop-opacity:1" />
      <stop offset="100%" style="stop-color:#FF8C42;stop-opacity:1" />
    </linearGradient>
  </defs>
  
  <!-- Background circle -->
  <circle cx="50" cy="50" r="48" fill="url(#bgGradient)"/>
  
  <!-- Main chili pepper body -->
  <path d="M 50 18 Q 42 22 42 32 Q 42 42 48 58 Q 52 65 50 70 Q 48 65 52 58 Q 58 42 58 32 Q 58 22 50 18 Z" fill="url(#chiliGradient)"/>
  
  <!-- Chili pepper highlight -->
  <path d="M 50 20 Q 46 24 46 32 Q 46 40 50 55 Q 54 40 54 32 Q 54 24 50 20 Z" fill="#FFB366" opacity="0.7"/>
  
  <!-- Stem -->
  <path d="M 50 18 L 47 12 L 53 12 Z" fill="#4CAF50"/>
  <path d="M 50 18 L 48 14 L 52 14 Z" fill="#66BB6A"/>
  
  <!-- Small highlight on chili -->
  <ellipse cx="48" cy="35" rx="2" ry="4" fill="#FFFFFF" opacity="0.4"/>
</svg>

